<?xml version="1.0" encoding="UTF-8"?>
<svg xmlns="http://www.w3.org/2000/svg" xmlns:xlink="http://www.w3.org/1999/xlink" width="16px" height="16px" viewBox="0 0 16 16" version="1.1">
<g id="surface1">
<path style=" stroke:none;fill-rule:nonzero;fill:rgb(0%,0%,0%);fill-opacity:1;" d="M 6.933594 1.601562 C 3.992188 1.601562 1.601562 3.992188 1.601562 6.933594 C 1.601562 9.871094 3.992188 12.265625 6.933594 12.265625 C 8.210938 12.265625 9.386719 11.8125 10.304688 11.058594 L 13.488281 14.242188 C 13.625 14.382812 13.820312 14.4375 14.007812 14.390625 C 14.195312 14.339844 14.339844 14.195312 14.390625 14.007812 C 14.4375 13.820312 14.382812 13.625 14.242188 13.488281 L 11.058594 10.304688 C 11.8125 9.386719 12.265625 8.210938 12.265625 6.933594 C 12.265625 3.992188 9.871094 1.601562 6.933594 1.601562 Z M 6.933594 2.667969 C 9.296875 2.667969 11.199219 4.570312 11.199219 6.933594 C 11.199219 9.296875 9.296875 11.199219 6.933594 11.199219 C 4.570312 11.199219 2.667969 9.296875 2.667969 6.933594 C 2.667969 4.570312 4.570312 2.667969 6.933594 2.667969 Z M 6.933594 2.667969 "/>
</g>
</svg>
